<?xml version="1.0" encoding="utf-8"?>
<!-- Generator: Adobe Illustrator 16.0.3, SVG Export Plug-In . SVG Version: 6.00 Build 0)  -->
<!DOCTYPE svg PUBLIC "-//W3C//DTD SVG 1.1//EN" "http://www.w3.org/Graphics/SVG/1.1/DTD/svg11.dtd">
<svg version="1.1" xmlns="http://www.w3.org/2000/svg" xmlns:xlink="http://www.w3.org/1999/xlink" x="0px" y="0px" width="375px"
	 height="375px" viewBox="0 0 375 375" enable-background="new 0 0 375 375" xml:space="preserve">
<g id="Layer_1">
	<path fill="none" stroke="#FFFFFF" stroke-width="6" stroke-miterlimit="10" d="M293.359,319.427c0,3.474-2.816,6.289-6.289,6.289
		H86.349c-3.474,0-6.29-2.815-6.29-6.289V211.114c0-3.474,2.816-6.289,6.29-6.289H287.07c3.473,0,6.289,2.815,6.289,6.289V319.427z"
		/>
	<circle fill="none" stroke="#FFFFFF" stroke-width="6" stroke-miterlimit="10" cx="190.235" cy="266.168" r="48.025"/>
	<circle fill="none" stroke="#FFFFFF" stroke-width="6" stroke-miterlimit="10" cx="190.236" cy="266.168" r="34.114"/>
	<path fill="none" stroke="#FFFFFF" stroke-width="6" stroke-miterlimit="10" d="M216.404,184.276
		c0-0.761-12.693-1.377-28.346-1.377l0,0c-15.651,0-28.343,0.617-28.343,1.377v19.172c0,0.76,12.692,1.377,28.343,1.377l0,0
		c15.652,0,28.346-0.617,28.346-1.377V184.276z"/>
	<circle fill="none" stroke="#FFFFFF" stroke-width="6" stroke-miterlimit="10" cx="95.786" cy="220.939" r="7.299"/>
	<line fill="none" stroke="#FFFFFF" stroke-width="6" stroke-miterlimit="10" x1="76.448" y1="325.716" x2="61.411" y2="204.825"/>
	<line fill="none" stroke="#FFFFFF" stroke-width="6" stroke-miterlimit="10" x1="61.411" y1="204.825" x2="47.532" y2="200.249"/>
	<line fill="none" stroke="#FFFFFF" stroke-width="6" stroke-miterlimit="10" x1="47.532" y1="200.249" x2="61.411" y2="335"/>
	<line fill="none" stroke="#FFFFFF" stroke-width="6" stroke-miterlimit="10" x1="61.411" y1="335" x2="76.448" y2="325.716"/>
	<line fill="none" stroke="#FFFFFF" stroke-width="6" stroke-miterlimit="10" x1="54.471" y1="335" x2="3" y2="304.349"/>
	<line fill="none" stroke="#FFFFFF" stroke-width="6" stroke-miterlimit="10" x1="3" y1="304.349" x2="16.88" y2="200.249"/>
	<line fill="none" stroke="#FFFFFF" stroke-width="6" stroke-miterlimit="10" x1="16.88" y1="200.249" x2="40.013" y2="200.249"/>
	<line fill="none" stroke="#FFFFFF" stroke-width="6" stroke-miterlimit="10" x1="40.013" y1="200.249" x2="54.471" y2="335"/>
	<path fill="none" stroke="#FFFFFF" stroke-width="6" stroke-miterlimit="10" d="M16.88,188.104
		c0-72.244,75.958-130.703,169.829-130.703"/>
	<path fill="none" stroke="#FFFFFF" stroke-width="6" stroke-miterlimit="10" d="M40.013,191.574
		c0-69.367,65.612-125.497,146.695-125.497"/>
	<line fill="none" stroke="#FFFFFF" stroke-width="6" stroke-miterlimit="10" x1="40.013" y1="191.574" x2="16.88" y2="188.104"/>
	
		<line fill="none" stroke="#FFFFFF" stroke-width="6" stroke-miterlimit="10" x1="296.971" y1="325.716" x2="312.006" y2="204.825"/>
	
		<line fill="none" stroke="#FFFFFF" stroke-width="6" stroke-miterlimit="10" x1="312.006" y1="204.825" x2="325.885" y2="200.249"/>
	<line fill="none" stroke="#FFFFFF" stroke-width="6" stroke-miterlimit="10" x1="325.885" y1="200.249" x2="312.006" y2="335"/>
	<line fill="none" stroke="#FFFFFF" stroke-width="6" stroke-miterlimit="10" x1="312.006" y1="335" x2="296.971" y2="325.716"/>
	<line fill="none" stroke="#FFFFFF" stroke-width="6" stroke-miterlimit="10" x1="318.945" y1="335" x2="370.418" y2="304.349"/>
	
		<line fill="none" stroke="#FFFFFF" stroke-width="6" stroke-miterlimit="10" x1="370.418" y1="304.349" x2="356.537" y2="200.249"/>
	
		<line fill="none" stroke="#FFFFFF" stroke-width="6" stroke-miterlimit="10" x1="356.537" y1="200.249" x2="333.404" y2="200.249"/>
	<line fill="none" stroke="#FFFFFF" stroke-width="6" stroke-miterlimit="10" x1="333.404" y1="200.249" x2="318.945" y2="335"/>
	<path fill="none" stroke="#FFFFFF" stroke-width="6" stroke-miterlimit="10" d="M356.537,188.104
		c0-72.244-75.957-130.703-169.829-130.703"/>
	<path fill="none" stroke="#FFFFFF" stroke-width="6" stroke-miterlimit="10" d="M333.404,191.574
		c0-69.367-65.611-125.497-146.696-125.497"/>
	
		<line fill="none" stroke="#FFFFFF" stroke-width="6" stroke-miterlimit="10" x1="333.404" y1="191.574" x2="356.537" y2="188.104"/>
	
		<line fill="none" stroke="#FFFFFF" stroke-width="6" stroke-miterlimit="10" x1="271.819" y1="204.836" x2="271.761" y2="197.511"/>
	<rect y="113.141" fill="none" width="366" height="99.5"/>
	<text transform="matrix(1 0 0 1 60.9224 163.2295)" fill="#FFFFFF" font-family="'SignPainter-HouseScript'" font-size="80">SnapTrax</text>
</g>
<g id="Layer_2">
</g>
</svg>
